<mxfile host="app.diagrams.net" modified="2024-02-03T16:25:17.958Z" agent="Mozilla/5.0 (Windows NT 10.0; Win64; x64) AppleWebKit/537.36 (KHTML, like Gecko) Chrome/121.0.0.0 Safari/537.36" etag="Tp7nrU0xoag2e1jwhuCQ" version="23.1.1" type="github">
  <diagram name="Page-1" id="kY52hed1gPfC5JKr7Pti">
    <mxGraphModel dx="3540" dy="1124" grid="1" gridSize="10" guides="1" tooltips="1" connect="1" arrows="1" fold="1" page="1" pageScale="1" pageWidth="827" pageHeight="1169" math="0" shadow="0">
      <root>
        <mxCell id="0" />
        <mxCell id="1" parent="0" />
        <mxCell id="-a9tqzKvRjELBJZRUCe9-1" value="&lt;font style=&quot;font-size: 18px;&quot;&gt;Functional Requirements&lt;/font&gt;" style="text;html=1;align=center;verticalAlign=middle;resizable=0;points=[];autosize=1;strokeColor=none;fillColor=none;" vertex="1" parent="1">
          <mxGeometry x="-790" y="80" width="220" height="40" as="geometry" />
        </mxCell>
        <mxCell id="-a9tqzKvRjELBJZRUCe9-2" value="&lt;font style=&quot;font-size: 18px;&quot;&gt;Non-Functional Requirements&lt;/font&gt;" style="text;html=1;align=center;verticalAlign=middle;resizable=0;points=[];autosize=1;strokeColor=none;fillColor=none;" vertex="1" parent="1">
          <mxGeometry x="-490" y="80" width="260" height="40" as="geometry" />
        </mxCell>
        <mxCell id="-a9tqzKvRjELBJZRUCe9-3" value="&lt;ol&gt;&lt;li&gt;Sending and receiving ( 1:1, Group) messages&lt;/li&gt;&lt;li&gt;Send Read, Delivered receipts&amp;nbsp;&lt;/li&gt;&lt;li style=&quot;&quot;&gt;Share multi-media (images,videos,docks)&lt;/li&gt;&lt;/ol&gt;" style="text;html=1;align=left;verticalAlign=middle;resizable=0;points=[];autosize=1;strokeColor=none;fillColor=none;" vertex="1" parent="1">
          <mxGeometry x="-810" y="130" width="310" height="80" as="geometry" />
        </mxCell>
        <mxCell id="-a9tqzKvRjELBJZRUCe9-4" value="&lt;ol&gt;&lt;li&gt;&amp;nbsp;High Consistency ( Order of messages )&amp;nbsp;&lt;/li&gt;&lt;li&gt;&amp;nbsp;High availability&lt;/li&gt;&lt;li&gt;Support for different mobile clients&lt;/li&gt;&lt;li&gt;Low latency&lt;/li&gt;&lt;/ol&gt;" style="text;html=1;align=left;verticalAlign=middle;resizable=0;points=[];autosize=1;strokeColor=none;fillColor=none;" vertex="1" parent="1">
          <mxGeometry x="-500" y="125" width="280" height="100" as="geometry" />
        </mxCell>
        <mxCell id="-a9tqzKvRjELBJZRUCe9-6" value="&lt;font style=&quot;font-size: 18px;&quot;&gt;Capacity&lt;/font&gt;" style="text;html=1;align=center;verticalAlign=middle;resizable=0;points=[];autosize=1;strokeColor=none;fillColor=none;" vertex="1" parent="1">
          <mxGeometry x="-160" y="80" width="90" height="40" as="geometry" />
        </mxCell>
        <mxCell id="-a9tqzKvRjELBJZRUCe9-7" value="&amp;nbsp; &amp;nbsp; &amp;nbsp; &amp;nbsp; &amp;nbsp; 2 billion users&lt;br&gt;&amp;nbsp; &amp;nbsp; &amp;nbsp; &amp;nbsp; &amp;nbsp; 100 billion messages per day&lt;br&gt;&amp;nbsp; &amp;nbsp; &amp;nbsp; &amp;nbsp; &amp;nbsp; 100 billion * 1kb (per message) =&amp;nbsp; 100 TB&lt;br&gt;&amp;nbsp; &amp;nbsp; &amp;nbsp; &amp;nbsp; &amp;nbsp; &amp;nbsp;30 days * 100 / tb = 3000 TB / month&amp;nbsp;" style="text;html=1;align=left;verticalAlign=middle;resizable=0;points=[];autosize=1;strokeColor=none;fillColor=none;" vertex="1" parent="1">
          <mxGeometry x="-180" y="135" width="280" height="70" as="geometry" />
        </mxCell>
        <mxCell id="-a9tqzKvRjELBJZRUCe9-12" style="edgeStyle=orthogonalEdgeStyle;rounded=0;orthogonalLoop=1;jettySize=auto;html=1;" edge="1" parent="1" source="-a9tqzKvRjELBJZRUCe9-9" target="-a9tqzKvRjELBJZRUCe9-11">
          <mxGeometry relative="1" as="geometry" />
        </mxCell>
        <mxCell id="-a9tqzKvRjELBJZRUCe9-9" value="user 1" style="rounded=1;whiteSpace=wrap;html=1;" vertex="1" parent="1">
          <mxGeometry x="-780" y="570" width="120" height="60" as="geometry" />
        </mxCell>
        <mxCell id="-a9tqzKvRjELBJZRUCe9-21" style="edgeStyle=orthogonalEdgeStyle;rounded=0;orthogonalLoop=1;jettySize=auto;html=1;entryX=0.5;entryY=1;entryDx=0;entryDy=0;dashed=1;" edge="1" parent="1" source="-a9tqzKvRjELBJZRUCe9-10" target="-a9tqzKvRjELBJZRUCe9-11">
          <mxGeometry relative="1" as="geometry">
            <Array as="points">
              <mxPoint x="-720" y="870" />
              <mxPoint x="-420" y="870" />
            </Array>
          </mxGeometry>
        </mxCell>
        <mxCell id="-a9tqzKvRjELBJZRUCe9-10" value="user 2" style="rounded=1;whiteSpace=wrap;html=1;" vertex="1" parent="1">
          <mxGeometry x="-780" y="740" width="120" height="60" as="geometry" />
        </mxCell>
        <mxCell id="-a9tqzKvRjELBJZRUCe9-13" style="edgeStyle=orthogonalEdgeStyle;rounded=0;orthogonalLoop=1;jettySize=auto;html=1;entryX=1;entryY=0.5;entryDx=0;entryDy=0;" edge="1" parent="1" source="-a9tqzKvRjELBJZRUCe9-11" target="-a9tqzKvRjELBJZRUCe9-10">
          <mxGeometry relative="1" as="geometry" />
        </mxCell>
        <mxCell id="-a9tqzKvRjELBJZRUCe9-16" style="edgeStyle=orthogonalEdgeStyle;rounded=0;orthogonalLoop=1;jettySize=auto;html=1;" edge="1" parent="1" source="-a9tqzKvRjELBJZRUCe9-11" target="-a9tqzKvRjELBJZRUCe9-15">
          <mxGeometry relative="1" as="geometry" />
        </mxCell>
        <mxCell id="-a9tqzKvRjELBJZRUCe9-18" style="edgeStyle=orthogonalEdgeStyle;rounded=0;orthogonalLoop=1;jettySize=auto;html=1;exitX=0.75;exitY=0;exitDx=0;exitDy=0;entryX=0.5;entryY=0;entryDx=0;entryDy=0;dashed=1;" edge="1" parent="1" source="-a9tqzKvRjELBJZRUCe9-11" target="-a9tqzKvRjELBJZRUCe9-9">
          <mxGeometry relative="1" as="geometry">
            <Array as="points">
              <mxPoint x="-390" y="520" />
              <mxPoint x="-720" y="520" />
            </Array>
          </mxGeometry>
        </mxCell>
        <mxCell id="-a9tqzKvRjELBJZRUCe9-23" style="edgeStyle=orthogonalEdgeStyle;rounded=0;orthogonalLoop=1;jettySize=auto;html=1;exitX=0.75;exitY=0;exitDx=0;exitDy=0;entryX=0.75;entryY=0;entryDx=0;entryDy=0;dashed=1;" edge="1" parent="1" source="-a9tqzKvRjELBJZRUCe9-11" target="-a9tqzKvRjELBJZRUCe9-9">
          <mxGeometry relative="1" as="geometry">
            <Array as="points">
              <mxPoint x="-392" y="460" />
              <mxPoint x="-690" y="460" />
            </Array>
          </mxGeometry>
        </mxCell>
        <mxCell id="-a9tqzKvRjELBJZRUCe9-34" style="edgeStyle=orthogonalEdgeStyle;rounded=0;orthogonalLoop=1;jettySize=auto;html=1;entryX=0.75;entryY=0;entryDx=0;entryDy=0;dashed=1;" edge="1" parent="1" source="-a9tqzKvRjELBJZRUCe9-11" target="-a9tqzKvRjELBJZRUCe9-9">
          <mxGeometry relative="1" as="geometry">
            <Array as="points">
              <mxPoint x="-370" y="400" />
              <mxPoint x="-690" y="400" />
            </Array>
          </mxGeometry>
        </mxCell>
        <mxCell id="-a9tqzKvRjELBJZRUCe9-11" value="chat server" style="rounded=1;whiteSpace=wrap;html=1;" vertex="1" parent="1">
          <mxGeometry x="-490" y="660" width="130" height="40" as="geometry" />
        </mxCell>
        <mxCell id="-a9tqzKvRjELBJZRUCe9-14" style="edgeStyle=orthogonalEdgeStyle;rounded=0;orthogonalLoop=1;jettySize=auto;html=1;exitX=0.5;exitY=1;exitDx=0;exitDy=0;" edge="1" parent="1" source="-a9tqzKvRjELBJZRUCe9-9" target="-a9tqzKvRjELBJZRUCe9-9">
          <mxGeometry relative="1" as="geometry" />
        </mxCell>
        <mxCell id="-a9tqzKvRjELBJZRUCe9-15" value="Temporary Database&lt;br&gt;Lot of (Read/Delete)&lt;br&gt;Operations" style="rounded=1;whiteSpace=wrap;html=1;" vertex="1" parent="1">
          <mxGeometry x="-200" y="640" width="130" height="70" as="geometry" />
        </mxCell>
        <mxCell id="-a9tqzKvRjELBJZRUCe9-17" value="Msg: How are you?" style="text;html=1;align=center;verticalAlign=middle;resizable=0;points=[];autosize=1;strokeColor=none;fillColor=none;" vertex="1" parent="1">
          <mxGeometry x="-610" y="568" width="130" height="30" as="geometry" />
        </mxCell>
        <mxCell id="-a9tqzKvRjELBJZRUCe9-19" value="Acknowledgment (Sent)&amp;nbsp;" style="text;html=1;align=center;verticalAlign=middle;resizable=0;points=[];autosize=1;strokeColor=none;fillColor=none;" vertex="1" parent="1">
          <mxGeometry x="-610" y="520" width="150" height="30" as="geometry" />
        </mxCell>
        <mxCell id="-a9tqzKvRjELBJZRUCe9-22" value="Acknowledgment&amp;nbsp;(Recieved)" style="text;html=1;align=center;verticalAlign=middle;resizable=0;points=[];autosize=1;strokeColor=none;fillColor=none;" vertex="1" parent="1">
          <mxGeometry x="-660" y="840" width="180" height="30" as="geometry" />
        </mxCell>
        <mxCell id="-a9tqzKvRjELBJZRUCe9-24" value="Acknowledgment (Delivered)" style="text;html=1;align=center;verticalAlign=middle;resizable=0;points=[];autosize=1;strokeColor=none;fillColor=none;" vertex="1" parent="1">
          <mxGeometry x="-635" y="460" width="180" height="30" as="geometry" />
        </mxCell>
        <mxCell id="-a9tqzKvRjELBJZRUCe9-26" style="edgeStyle=orthogonalEdgeStyle;rounded=0;orthogonalLoop=1;jettySize=auto;html=1;" edge="1" parent="1" source="-a9tqzKvRjELBJZRUCe9-10" target="-a9tqzKvRjELBJZRUCe9-10">
          <mxGeometry relative="1" as="geometry" />
        </mxCell>
        <mxCell id="-a9tqzKvRjELBJZRUCe9-27" style="edgeStyle=orthogonalEdgeStyle;rounded=0;orthogonalLoop=1;jettySize=auto;html=1;exitX=0.25;exitY=1;exitDx=0;exitDy=0;entryX=0.316;entryY=0.964;entryDx=0;entryDy=0;entryPerimeter=0;dashed=1;" edge="1" parent="1" source="-a9tqzKvRjELBJZRUCe9-10" target="-a9tqzKvRjELBJZRUCe9-11">
          <mxGeometry relative="1" as="geometry">
            <Array as="points">
              <mxPoint x="-750" y="940" />
              <mxPoint x="-449" y="940" />
            </Array>
          </mxGeometry>
        </mxCell>
        <mxCell id="-a9tqzKvRjELBJZRUCe9-28" value="Acknowledgment&amp;nbsp;(Read)" style="text;html=1;align=center;verticalAlign=middle;resizable=0;points=[];autosize=1;strokeColor=none;fillColor=none;" vertex="1" parent="1">
          <mxGeometry x="-670" y="900" width="150" height="30" as="geometry" />
        </mxCell>
        <mxCell id="-a9tqzKvRjELBJZRUCe9-31" value="Acknowledgment&amp;nbsp;(Read)" style="text;html=1;align=center;verticalAlign=middle;resizable=0;points=[];autosize=1;strokeColor=none;fillColor=none;" vertex="1" parent="1">
          <mxGeometry x="-610" y="370" width="150" height="30" as="geometry" />
        </mxCell>
        <mxCell id="-a9tqzKvRjELBJZRUCe9-35" value="Store messages until user A or user B has RECIEVED the message" style="text;html=1;strokeColor=none;fillColor=none;align=center;verticalAlign=middle;whiteSpace=wrap;rounded=0;" vertex="1" parent="1">
          <mxGeometry x="-60" y="670" width="60" height="30" as="geometry" />
        </mxCell>
        <mxCell id="-a9tqzKvRjELBJZRUCe9-36" value="&lt;font style=&quot;font-size: 18px;&quot;&gt;APIs&lt;/font&gt;" style="text;html=1;align=center;verticalAlign=middle;resizable=0;points=[];autosize=1;strokeColor=none;fillColor=none;" vertex="1" parent="1">
          <mxGeometry x="160" y="80" width="60" height="40" as="geometry" />
        </mxCell>
        <mxCell id="-a9tqzKvRjELBJZRUCe9-37" value="&amp;nbsp; &amp;nbsp; &amp;nbsp; &amp;nbsp;&amp;nbsp;" style="text;html=1;align=left;verticalAlign=middle;resizable=0;points=[];autosize=1;strokeColor=none;fillColor=none;" vertex="1" parent="1">
          <mxGeometry x="150" y="150" width="50" height="30" as="geometry" />
        </mxCell>
        <mxCell id="-a9tqzKvRjELBJZRUCe9-38" value="&amp;nbsp; &amp;nbsp; &amp;nbsp; &amp;nbsp; &amp;nbsp; /messages [POST]&amp;nbsp;&lt;br style=&quot;border-color: var(--border-color);&quot;&gt;&amp;nbsp; &amp;nbsp; &amp;nbsp; &amp;nbsp; &amp;nbsp; &amp;nbsp;sendMessage(sender_id, receiver_id, type, media_object=None) =&amp;gt; msg_id&lt;br&gt;&lt;br&gt;&amp;nbsp; &amp;nbsp; &amp;nbsp; &amp;nbsp; &amp;nbsp; /getMessage [get]&amp;nbsp;&lt;br style=&quot;border-color: var(--border-color);&quot;&gt;&amp;nbsp; &amp;nbsp; &amp;nbsp; &amp;nbsp; &amp;nbsp; &amp;nbsp;getMessages(user_id)&lt;br&gt;&lt;br&gt;&amp;nbsp; &amp;nbsp; &amp;nbsp; &amp;nbsp; &amp;nbsp; &amp;nbsp;/media[POST]&amp;nbsp;&lt;br style=&quot;border-color: var(--border-color);&quot;&gt;&amp;nbsp; &amp;nbsp; &amp;nbsp; &amp;nbsp; &amp;nbsp; &amp;nbsp;uploadFile(file, file_type) =&amp;gt; file_id&lt;br&gt;&lt;br&gt;&amp;nbsp; &amp;nbsp; &amp;nbsp; &amp;nbsp; &amp;nbsp; &amp;nbsp; /media[GET]&amp;nbsp;&lt;br&gt;&amp;nbsp; &amp;nbsp; &amp;nbsp; &amp;nbsp; &amp;nbsp; &amp;nbsp; &amp;nbsp;downloadFile(user_id,file, file_id)&amp;nbsp;&lt;br style=&quot;border-color: var(--border-color);&quot;&gt;&amp;nbsp; &amp;nbsp; &amp;nbsp; &amp;nbsp;&lt;br style=&quot;border-color: var(--border-color);&quot;&gt;&amp;nbsp; &amp;nbsp; &amp;nbsp; &amp;nbsp;" style="text;html=1;align=left;verticalAlign=middle;resizable=0;points=[];autosize=1;strokeColor=none;fillColor=none;" vertex="1" parent="1">
          <mxGeometry x="130" y="120" width="460" height="200" as="geometry" />
        </mxCell>
        <mxCell id="-a9tqzKvRjELBJZRUCe9-39" value="User 1" style="rounded=1;whiteSpace=wrap;html=1;" vertex="1" parent="1">
          <mxGeometry x="180" y="445" width="120" height="60" as="geometry" />
        </mxCell>
        <mxCell id="-a9tqzKvRjELBJZRUCe9-45" style="edgeStyle=orthogonalEdgeStyle;rounded=0;orthogonalLoop=1;jettySize=auto;html=1;entryX=0;entryY=0.75;entryDx=0;entryDy=0;" edge="1" parent="1" source="-a9tqzKvRjELBJZRUCe9-40" target="-a9tqzKvRjELBJZRUCe9-42">
          <mxGeometry relative="1" as="geometry" />
        </mxCell>
        <mxCell id="-a9tqzKvRjELBJZRUCe9-40" value="User 2" style="rounded=1;whiteSpace=wrap;html=1;" vertex="1" parent="1">
          <mxGeometry x="180" y="550" width="120" height="60" as="geometry" />
        </mxCell>
        <mxCell id="-a9tqzKvRjELBJZRUCe9-48" style="edgeStyle=orthogonalEdgeStyle;rounded=0;orthogonalLoop=1;jettySize=auto;html=1;entryX=0;entryY=0.5;entryDx=0;entryDy=0;" edge="1" parent="1" source="-a9tqzKvRjELBJZRUCe9-42" target="-a9tqzKvRjELBJZRUCe9-47">
          <mxGeometry relative="1" as="geometry" />
        </mxCell>
        <mxCell id="-a9tqzKvRjELBJZRUCe9-42" value="Load Balancer" style="whiteSpace=wrap;html=1;aspect=fixed;" vertex="1" parent="1">
          <mxGeometry x="370" y="468" width="100" height="100" as="geometry" />
        </mxCell>
        <mxCell id="-a9tqzKvRjELBJZRUCe9-46" style="edgeStyle=orthogonalEdgeStyle;rounded=0;orthogonalLoop=1;jettySize=auto;html=1;entryX=-0.008;entryY=0.448;entryDx=0;entryDy=0;entryPerimeter=0;" edge="1" parent="1" source="-a9tqzKvRjELBJZRUCe9-39" target="-a9tqzKvRjELBJZRUCe9-42">
          <mxGeometry relative="1" as="geometry" />
        </mxCell>
        <mxCell id="-a9tqzKvRjELBJZRUCe9-50" style="edgeStyle=orthogonalEdgeStyle;rounded=0;orthogonalLoop=1;jettySize=auto;html=1;entryX=0.5;entryY=1;entryDx=0;entryDy=0;" edge="1" parent="1" source="-a9tqzKvRjELBJZRUCe9-47" target="-a9tqzKvRjELBJZRUCe9-49">
          <mxGeometry relative="1" as="geometry" />
        </mxCell>
        <mxCell id="-a9tqzKvRjELBJZRUCe9-52" style="edgeStyle=orthogonalEdgeStyle;rounded=0;orthogonalLoop=1;jettySize=auto;html=1;exitX=0.25;exitY=0;exitDx=0;exitDy=0;entryX=0.75;entryY=1;entryDx=0;entryDy=0;" edge="1" parent="1" source="-a9tqzKvRjELBJZRUCe9-47" target="-a9tqzKvRjELBJZRUCe9-51">
          <mxGeometry relative="1" as="geometry" />
        </mxCell>
        <mxCell id="-a9tqzKvRjELBJZRUCe9-55" style="edgeStyle=orthogonalEdgeStyle;rounded=0;orthogonalLoop=1;jettySize=auto;html=1;entryX=0;entryY=0.5;entryDx=0;entryDy=0;" edge="1" parent="1" source="-a9tqzKvRjELBJZRUCe9-47" target="-a9tqzKvRjELBJZRUCe9-54">
          <mxGeometry relative="1" as="geometry" />
        </mxCell>
        <mxCell id="-a9tqzKvRjELBJZRUCe9-61" style="edgeStyle=orthogonalEdgeStyle;rounded=0;orthogonalLoop=1;jettySize=auto;html=1;exitX=0.5;exitY=1;exitDx=0;exitDy=0;entryX=0;entryY=0.5;entryDx=0;entryDy=0;" edge="1" parent="1" source="-a9tqzKvRjELBJZRUCe9-47" target="-a9tqzKvRjELBJZRUCe9-59">
          <mxGeometry relative="1" as="geometry" />
        </mxCell>
        <mxCell id="-a9tqzKvRjELBJZRUCe9-67" style="edgeStyle=orthogonalEdgeStyle;rounded=0;orthogonalLoop=1;jettySize=auto;html=1;entryX=0.5;entryY=0;entryDx=0;entryDy=0;" edge="1" parent="1" source="-a9tqzKvRjELBJZRUCe9-47" target="-a9tqzKvRjELBJZRUCe9-66">
          <mxGeometry relative="1" as="geometry" />
        </mxCell>
        <mxCell id="-a9tqzKvRjELBJZRUCe9-47" value="Web Socket&lt;br&gt;Chat Server" style="rounded=1;whiteSpace=wrap;html=1;" vertex="1" parent="1">
          <mxGeometry x="530" y="498" width="130" height="40" as="geometry" />
        </mxCell>
        <mxCell id="-a9tqzKvRjELBJZRUCe9-49" value="Redis Cache&lt;br&gt;for managing web&lt;br&gt;socket connections" style="rounded=1;whiteSpace=wrap;html=1;" vertex="1" parent="1">
          <mxGeometry x="535" y="380" width="120" height="60" as="geometry" />
        </mxCell>
        <mxCell id="-a9tqzKvRjELBJZRUCe9-51" value="Chat server cache" style="rounded=1;whiteSpace=wrap;html=1;" vertex="1" parent="1">
          <mxGeometry x="720" y="380" width="120" height="60" as="geometry" />
        </mxCell>
        <mxCell id="-a9tqzKvRjELBJZRUCe9-53" value="Database (Redis)" style="rounded=1;whiteSpace=wrap;html=1;" vertex="1" parent="1">
          <mxGeometry x="870" y="488" width="120" height="60" as="geometry" />
        </mxCell>
        <mxCell id="-a9tqzKvRjELBJZRUCe9-56" style="edgeStyle=orthogonalEdgeStyle;rounded=0;orthogonalLoop=1;jettySize=auto;html=1;" edge="1" parent="1" source="-a9tqzKvRjELBJZRUCe9-54" target="-a9tqzKvRjELBJZRUCe9-53">
          <mxGeometry relative="1" as="geometry" />
        </mxCell>
        <mxCell id="-a9tqzKvRjELBJZRUCe9-58" style="edgeStyle=orthogonalEdgeStyle;rounded=0;orthogonalLoop=1;jettySize=auto;html=1;entryX=0;entryY=0.75;entryDx=0;entryDy=0;" edge="1" parent="1" source="-a9tqzKvRjELBJZRUCe9-54" target="-a9tqzKvRjELBJZRUCe9-57">
          <mxGeometry relative="1" as="geometry" />
        </mxCell>
        <mxCell id="-a9tqzKvRjELBJZRUCe9-54" value="Message Service" style="whiteSpace=wrap;html=1;" vertex="1" parent="1">
          <mxGeometry x="690" y="488" width="120" height="60" as="geometry" />
        </mxCell>
        <mxCell id="-a9tqzKvRjELBJZRUCe9-57" value="MessageQueue&lt;br&gt;Amazon Kinesis" style="rounded=1;whiteSpace=wrap;html=1;" vertex="1" parent="1">
          <mxGeometry x="870" y="585" width="120" height="60" as="geometry" />
        </mxCell>
        <mxCell id="-a9tqzKvRjELBJZRUCe9-63" style="edgeStyle=orthogonalEdgeStyle;rounded=0;orthogonalLoop=1;jettySize=auto;html=1;entryX=0;entryY=0.5;entryDx=0;entryDy=0;" edge="1" parent="1" source="-a9tqzKvRjELBJZRUCe9-59" target="-a9tqzKvRjELBJZRUCe9-62">
          <mxGeometry relative="1" as="geometry" />
        </mxCell>
        <mxCell id="-a9tqzKvRjELBJZRUCe9-65" style="edgeStyle=orthogonalEdgeStyle;rounded=0;orthogonalLoop=1;jettySize=auto;html=1;entryX=0;entryY=0.5;entryDx=0;entryDy=0;" edge="1" parent="1" source="-a9tqzKvRjELBJZRUCe9-59" target="-a9tqzKvRjELBJZRUCe9-64">
          <mxGeometry relative="1" as="geometry" />
        </mxCell>
        <mxCell id="-a9tqzKvRjELBJZRUCe9-59" value="Media Service" style="rounded=1;whiteSpace=wrap;html=1;" vertex="1" parent="1">
          <mxGeometry x="620" y="680" width="120" height="60" as="geometry" />
        </mxCell>
        <mxCell id="-a9tqzKvRjELBJZRUCe9-62" value="Blob Storage&lt;br&gt;S3" style="rounded=1;whiteSpace=wrap;html=1;" vertex="1" parent="1">
          <mxGeometry x="800" y="680" width="120" height="60" as="geometry" />
        </mxCell>
        <mxCell id="-a9tqzKvRjELBJZRUCe9-64" value="Amazon CloudFront. " style="rounded=1;whiteSpace=wrap;html=1;" vertex="1" parent="1">
          <mxGeometry x="800" y="780" width="120" height="60" as="geometry" />
        </mxCell>
        <mxCell id="-a9tqzKvRjELBJZRUCe9-69" style="edgeStyle=orthogonalEdgeStyle;rounded=0;orthogonalLoop=1;jettySize=auto;html=1;entryX=0.5;entryY=0;entryDx=0;entryDy=0;" edge="1" parent="1" source="-a9tqzKvRjELBJZRUCe9-66" target="-a9tqzKvRjELBJZRUCe9-68">
          <mxGeometry relative="1" as="geometry" />
        </mxCell>
        <mxCell id="-a9tqzKvRjELBJZRUCe9-66" value="User service" style="rounded=1;whiteSpace=wrap;html=1;" vertex="1" parent="1">
          <mxGeometry x="430" y="690" width="120" height="60" as="geometry" />
        </mxCell>
        <mxCell id="-a9tqzKvRjELBJZRUCe9-68" value="Aurora" style="rounded=1;whiteSpace=wrap;html=1;" vertex="1" parent="1">
          <mxGeometry x="430" y="840" width="120" height="60" as="geometry" />
        </mxCell>
      </root>
    </mxGraphModel>
  </diagram>
</mxfile>
